{
  "accessors": [
    {
      "bufferView": 2,
      "componentType": 5126,
      "count": 1107,
      "max": [
        0.8196474313735962,
        0.8196473717689514,
        0.8183834552764893
      ],
      "min": [
        -0.8196476101875305,
        -0.8196473717689514,
        -0.8183834552764893
      ],
      "type": "VEC3"
    },
    {
      "bufferView": 2,
      "byteOffset": 13284,
      "componentType": 5126,
      "count": 1107,
      "max": [
        0.9995372295379639,
        0.9995337724685669,
        0.9742164015769958
      ],
      "min": [
        -0.9995372295379639,
        -0.9995337724685669,
        -0.9742163419723511
      ],
      "type": "VEC3"
    },
    {
      "bufferView": 1,
      "componentType": 5126,
      "count": 1107,
      "max": [
        0.7465707659721375,
        0.871542751789093
      ],
      "min": [
        0.5029324293136597,
        0.625
      ],
      "type": "VEC2"
    },
    {
      "bufferView": 0,
      "componentType": 5125,
      "count": 4176,
      "type": "SCALAR"
    },
    {
      "bufferView": 2,
      "byteOffset": 26568,
      "componentType": 5126,
      "count": 379,
      "max": [
        0.8015033006668091,
        0.8015032410621643,
        0.8002548813819885
      ],
      "min": [
        -0.8015034794807434,
        -0.8015032410621643,
        -0.8002548813819885
      ],
      "type": "VEC3"
    },
    {
      "bufferView": 2,
      "byteOffset": 31116,
      "componentType": 5126,
      "count": 379,
      "max": [
        0.9995372295379639,
        0.9995337724685669,
        0.9742164015769958
      ],
      "min": [
        -0.9995372295379639,
        -0.9995337724685669,
        -0.9742163419723511
      ],
      "type": "VEC3"
    },
    {
      "bufferView": 1,
      "byteOffset": 8856,
      "componentType": 5126,
      "count": 379,
      "max": [
        0.7465707659721375,
        0.871542751789093
      ],
      "min": [
        0.5029324293136597,
        0.625
      ],
      "type": "VEC2"
    },
    {
      "bufferView": 0,
      "byteOffset": 16704,
      "componentType": 5125,
      "count": 852,
      "type": "SCALAR"
    }
  ],
  "asset": {
    "extras": {
      "author": "dallerystudios (https://sketchfab.com/dallerystudios)",
      "license": "SKETCHFAB Standard (https://sketchfab.com/licenses)",
      "source": "https://sketchfab.com/3d-models/basketball-ball-e03a52df8d0343ea8e5b4fd717196cd7",
      "title": "Basketball_Ball"
    },
    "generator": "Sketchfab-16.59.0",
    "version": "2.0"
  },
  "bufferViews": [
    {
      "buffer": 0,
      "byteLength": 20112,
      "name": "floatBufferViews",
      "target": 34963
    },
    {
      "buffer": 0,
      "byteLength": 11888,
      "byteOffset": 20112,
      "byteStride": 8,
      "name": "floatBufferViews",
      "target": 34962
    },
    {
      "buffer": 0,
      "byteLength": 35664,
      "byteOffset": 32000,
      "byteStride": 12,
      "name": "floatBufferViews",
      "target": 34962
    }
  ],
  "buffers": [
    {
      "byteLength": 67664,
      "uri": "scene.bin"
    }
  ],
  "materials": [
    {
      "doubleSided": true,
      "name": "Basketball_Ball_Orange",
      "pbrMetallicRoughness": {
        "baseColorFactor": [
          1.0,
          0.187851,
          0.0,
          1.0
        ],
        "metallicFactor": 0.0,
        "roughnessFactor": 0.3
      }
    },
    {
      "doubleSided": true,
      "name": "Basketball_Ball_Black",
      "pbrMetallicRoughness": {
        "baseColorFactor": [
          0.0,
          0.0,
          0.0,
          1.0
        ],
        "metallicFactor": 0.0,
        "roughnessFactor": 0.2
      }
    }
  ],
  "meshes": [
    {
      "name": "Object_0",
      "primitives": [
        {
          "attributes": {
            "NORMAL": 1,
            "POSITION": 0,
            "TEXCOORD_0": 2
          },
          "indices": 3,
          "material": 0,
          "mode": 4
        }
      ]
    },
    {
      "name": "Object_1",
      "primitives": [
        {
          "attributes": {
            "NORMAL": 5,
            "POSITION": 4,
            "TEXCOORD_0": 6
          },
          "indices": 7,
          "material": 1,
          "mode": 4
        }
      ]
    }
  ],
  "nodes": [
    {
      "children": [
        1
      ],
      "matrix": [
        1.0,
        0.0,
        0.0,
        0.0,
        0.0,
        2.220446049250313e-16,
        -1.0,
        0.0,
        0.0,
        1.0,
        2.220446049250313e-16,
        0.0,
        0.0,
        0.0,
        0.0,
        1.0
      ],
      "name": "Sketchfab_model"
    },
    {
      "children": [
        2
      ],
      "name": "root"
    },
    {
      "children": [
        3
      ],
      "matrix": [
        1.0,
        0.0,
        0.0,
        0.0,
        0.0,
        2.220446049250313e-16,
        1.0,
        0.0,
        0.0,
        -1.0,
        2.220446049250313e-16,
        0.0,
        0.0,
        0.0,
        0.0,
        1.0
      ],
      "name": "GLTF_SceneRootNode"
    },
    {
      "children": [
        4,
        5
      ],
      "matrix": [
        0.19526292565963121,
        -0.05648789642769818,
        -0.0012772242659723782,
        0.0,
        0.04797621433316191,
        0.16818286443363176,
        -0.10359985931924695,
        0.0,
        0.029846211513484613,
        0.09921573798272249,
        0.1748872572848052,
        0.0,
        0.0,
        0.16881532967090607,
        0.0,
        1.0
      ],
      "name": "Basketball_Ball_0"
    },
    {
      "mesh": 0,
      "name": "Object_4"
    },
    {
      "mesh": 1,
      "name": "Object_5"
    }
  ],
  "scene": 0,
  "scenes": [
    {
      "name": "Sketchfab_Scene",
      "nodes": [
        0
      ]
    }
  ]
}
